{"title":"Jessica Lowndes - Silicone In Stereo (2014.Pop)","uid":11113738,"size":78261450,"categoryP":"video","categoryS":"music_videos","magnet":"?xt=urn:btih:d687aa0059f2bb84afe8ae776629e5c13088724b&amp;dn=Jessica+Lowndes+-+Silicone+In+Stereo+%282014.Pop%29&amp;tr=udp%3A%2F%2Ftracker.openbittorrent.com%3A80&amp;tr=udp%3A%2F%2Fopen.demonii.com%3A1337&amp;tr=udp%3A%2F%2Ftracker.coppersurfer.tk%3A6969&amp;tr=udp%3A%2F%2Fexodus.desync.com%3A6969","seeders":0,"leechers":0,"uploader":"MeRaDil","files":-1,"time":1411838757,"description":"JESSICA LOWNDES - SILICONE IN STEREO\n\n\n\nMPEG4 PROMO MUSIC VID\n\n &lt;a href=&quot;\nhttp://gifyu.com/images/Jessica.jpg&quot; rel=&quot;nofollow&quot; target=&quot;_NEW&quot;&gt;\nhttp://gifyu.com/images/Jessica.jpg&lt;/a&gt;\n &lt;a href=&quot;\nhttp://gifyu.com/images/JessicaLowndes.png&quot; rel=&quot;nofollow&quot; target=&quot;_NEW&quot;&gt;\nhttp://gifyu.com/images/JessicaLowndes.png&lt;/a&gt;\n\n\nGeneral\nComplete name                            : Jessica Lowndes -- Silicone In Stereo\nFormat                                   : MPEG-4\nFormat profile                           : Base Media\nCodec ID                                 : isom\nFile size                                : 74.6 MiB\nDuration                                 : 3mn 25s\nOverall bit rate                         : 3 048 Kbps\nMovie name                               : Silicone In Stereo\nMovie name/More                          : Jessica Lowndes\nPerformer                                : Jessica Lowndes\nGenre                                    : Pop\nContentType                              : Music Video\nRecorded date                            : 2014\nCopyright                                : Jessica Lowndes\nCover                                    : Yes\nRating                                   : ***\nMake                                     : MeRaDil\noday                                     : 06-09-2014  Canada\nartist url                               : www.jessicalowndes.com\nrelease                                  : Canada . september 6 . 2014\nPart_ID                                  : Silicone In Stereo\n\nVideo\nID                                       : 1\nFormat                                   : AVC\nFormat/Info                              : Advanced Video Codec\nFormat profile                           : &lt;a class=&quot;__cf_email__&quot; href=&quot;/cdn-cgi/l/email-protection&quot; data-cfemail=&quot;145c7d737c5458203a24&quot;&gt;[email&amp;#160;protected]&lt;/a&gt;&lt;script data-cfhash='f9e31' type=&quot;text/javascript&quot;&gt;\n/* &lt;![CDATA[ */!function(){try{var t=&quot;currentScript&quot;in document?document.currentScript:function(){for(var t=document.getElementsByTagName(&quot;script&quot;),e=t.length;e--;)if(t[e].getAttribute(&quot;data-cfhash&quot;))return t[e]}();if(t&amp;&amp;t.previousSibling){var e,r,n,i,c=t.previousSibling,a=c.getAttribute(&quot;data-cfemail&quot;);if(a){for(e=&quot;&quot;,r=parseInt(a.substr(0,2),16),n=2;a.length-n;n+=2)i=parseInt(a.substr(n,2),16)^r,e+=String.fromCharCode(i);e=document.createTextNode(e),c.parentNode.replaceChild(e,c)}t.parentNode.removeChild(t);}}catch(u){}}()/* ]]&gt; */&lt;/script&gt;\nFormat settings, CABAC                   : Yes\nFormat settings, ReFrames                : 2 frames\nCodec ID                                 : avc1\nCodec ID/Info                            : Advanced Video Coding\nDuration                                 : 3mn 25s\nBit rate                                 : 2 784 Kbps\nWidth                                    : 1 920 pixels\nHeight                                   : 1 080 pixels\nDisplay aspect ratio                     : 16:9\nFrame rate mode                          : Variable\nFrame rate                               : 23.976 fps\nMinimum frame rate                       : 23.974 fps\nMaximum frame rate                       : 23.981 fps\nColor space                              : YUV\nChroma subsampling                       : 4:2:0\nBit depth                                : 8 bits\nScan type                                : Progressive\nBits/(Pixel*Frame)                       : 0.056\nStream size                              : 68.2 MiB (91%)\n\nAudio\nID                                       : 2\nFormat                                   : AAC\nFormat/Info                              : Advanced Audio Codec\nFormat profile                           : LC\nCodec ID                                 : 40\nDuration                                 : 3mn 25s\nBit rate mode                            : Constant\nBit rate                                 : 256 Kbps\nChannel(s)                               : 2 channels\nChannel positions                        : Front: L R\nSampling rate                            : 44.1 KHz\nCompression mode                         : Lossy\nStream size                              : 6.27 MiB (8%)\n &lt;a href=&quot;\nhttps://thepiratebay.se/user/MeRaDil&quot; rel=&quot;nofollow&quot; target=&quot;_NEW&quot;&gt;\nhttps://thepiratebay.se/user/MeRaDil&lt;/a&gt;\n\n:)","torrent":{"xt":"urn:btih:d687aa0059f2bb84afe8ae776629e5c13088724b","amp;dn":"Jessica+Lowndes+-+Silicone+In+Stereo+%282014.Pop%29","amp;tr":["udp%3A%2F%2Ftracker.openbittorrent.com%3A80","udp%3A%2F%2Fopen.demonii.com%3A1337","udp%3A%2F%2Ftracker.coppersurfer.tk%3A6969","udp%3A%2F%2Fexodus.desync.com%3A6969"],"infoHash":"d687aa0059f2bb84afe8ae776629e5c13088724b","infoHashBuffer":{"type":"Buffer","data":[214,135,170,0,89,242,187,132,175,232,174,119,102,41,229,193,48,136,114,75]},"announce":[],"urlList":[]}}